<?xml version="1.0" encoding="UTF-8"?>
<svg id="Layer_1" xmlns="http://www.w3.org/2000/svg" viewBox="0 0 100 100">
  <defs>
    <style>
      .cls-1 {
        fill: #fff;
      }

      .cls-2 {
        fill: #1860d3;
      }
    </style>
  </defs>
  <circle class="cls-2" cx="50" cy="50" r="48.13"/>
  <g id="zr6tbi.tif">
    <g>
      <path class="cls-1" d="M15.5,33.59c1.05-2.13,3.63-3.39,6.25-3.07,1.21.15,2.43.26,3.64.43.39.06.62-.07.87-.33.86-.87,1.71-1.75,2.6-2.59.91-.86,2.02-.98,3.17-.64,1.06.31,1.66,1.08,1.9,2.13.18.81-.02,1.57-.44,2.35,1.3.16,2.54.31,3.79.44.14.01.33-.14.45-.26.8-.78,1.56-1.59,2.38-2.35.88-.82,1.94-1.07,3.09-.69,1.09.37,1.79,1.15,1.95,2.29.09.62-.07,1.27-.12,1.99.62.11,1.38.25,2.14.37,1.13.19,2.27.37,3.4.57.35.06.58-.03.83-.29,2.1-2.25,4.2-4.5,6.33-6.72,2.59-2.7,5.78-4.29,9.47-4.83.75-.11,1.57-.05,2.32.1,1.82.36,2.94,1.84,2.98,3.71.09,4.33-1.88,7.75-4.82,10.67-2.05,2.04-4.25,3.92-6.4,5.86-.29.26-.38.51-.32.91.3,1.87.56,3.74.84,5.61.02.11.04.21.06.29.55-.07,1.08-.22,1.6-.19,1.24.07,2.13.73,2.57,1.9.46,1.21.17,2.31-.7,3.24-.73.79-1.52,1.52-2.27,2.29-.13.13-.27.35-.25.51.11,1.18.25,2.35.38,3.49.63-.11,1.22-.31,1.81-.29,1.22.03,2.12.66,2.59,1.79.49,1.17.29,2.28-.54,3.22-.82.93-1.71,1.8-2.59,2.68-.26.26-.36.52-.32.88.14,1.07.24,2.14.38,3.2.3,2.39-.41,4.44-2.12,6.11-.32.31-.83.43-1.26.64h-.56c-1.3-.26-1.92-1.15-2.42-2.33-3.04-7.18-6.75-14.01-10.88-20.62-.06-.09-.13-.18-.22-.31-1.15,1.04-2.28,2.08-3.41,3.11-1.58,1.44-3.14,2.89-4.73,4.31-.29.26-.35.49-.24.86.9,3.09,1.77,6.19,2.67,9.29.23.8.07,1.46-.5,2.04-.47.48-.94.94-1.41,1.42-.89.9-2.06.8-2.78-.26-.71-1.04-1.41-2.09-2.11-3.14-1.29-1.92-2.59-3.84-3.88-5.77-.1-.15-.21-.3-.38-.53-.32.34-.63.63-.89.96-.8,1.03-2.4,1.01-3.32.14-.99-.93-1.04-2.35-.1-3.39.22-.24.51-.42.83-.68-1.08-.73-2.01-1.36-2.94-1.99-1.81-1.22-3.63-2.44-5.44-3.66-1.38-.93-1.5-2.15-.32-3.34.37-.37.75-.72,1.1-1.11.65-.74,1.45-.89,2.37-.66,2.96.74,5.93,1.45,8.9,2.2.38.1.6.02.86-.25,2.16-2.32,4.34-4.62,6.52-6.93.15-.16.3-.32.5-.54-1.4-.87-2.74-1.72-4.11-2.53-5.56-3.3-11.26-6.35-17.26-8.81-.76-.31-1.14-.95-1.47-1.65v-1.22ZM30.09,60.48c.06.05.12.1.17.15.26-.31.48-.66.77-.93,1.28-1.16,3.48-.56,3.81,1.04.2.97,0,1.85-.74,2.55-.32.3-.66.58-.99.87.04.05.08.09.12.14.12-.02.25-.03.36-.06,1.52-.39,2.82-1.14,3.98-2.21,3.24-2.99,6.51-5.95,9.77-8.93,6.18-5.64,12.35-11.29,18.54-16.91,1.25-1.14,2.28-2.43,3.08-3.91.91-1.7,1.64-3.45,1.66-5.42.02-1.84-.91-2.72-2.74-2.59-3.5.26-6.43,1.79-8.9,4.2-1.25,1.22-2.4,2.53-3.6,3.79-7.85,8.3-15.69,16.61-23.54,24.91-.89.94-1.36,2.09-1.74,3.29ZM48.48,54.44c1.43,2.42,2.87,4.76,4.22,7.14,2.74,4.81,5.25,9.75,7.39,14.87.38.92.97,1.02,1.62.26.91-1.07,1.32-2.32,1.18-3.71-.2-1.95-.44-3.9-.67-5.84-.2-1.73-.4-3.47-.62-5.2-.21-1.71-.47-3.41-.67-5.12-.25-2.13-.43-4.26-.69-6.39-.17-1.42-.41-2.82-.62-4.23-.08-.53-.16-1.07-.26-1.71-3.7,3.38-7.3,6.66-10.88,9.94ZM49.65,35.79c-2.64-.41-5.14-.83-7.65-1.19-1.47-.21-2.95-.3-4.42-.46-2.23-.25-4.45-.53-6.67-.78-2.82-.33-5.64-.61-8.45-.98-1.69-.22-3.25-.07-4.65.98-.82.62-.76,1.25.19,1.64,6.86,2.86,13.34,6.42,19.65,10.33.63.39,1.24.79,1.89,1.2,3.35-3.56,6.68-7.09,10.11-10.74ZM29.7,57.14c-2.94-.69-5.78-1.36-8.63-2.01-.14-.03-.34.01-.44.1-.51.45-1,.92-1.54,1.42,3.03,2.07,5.96,4.06,8.97,6.11.01-2.1.66-3.87,1.64-5.62ZM38.22,75.51c.43-.45.79-.85,1.18-1.21.26-.24.28-.46.19-.78-.81-2.79-1.6-5.58-2.4-8.37-.04-.13-.1-.26-.16-.41-1.56.89-3.21,1.41-5.04,1.59,2.08,3.07,4.13,6.08,6.23,9.19ZM33.45,61.4c-.14-.16-.26-.4-.41-.43-.22-.03-.53.01-.68.15-1.67,1.63-3.31,3.29-4.96,4.94-.23.23-.35.49-.07.77.29.3.56.26.86-.03,1.63-1.64,3.27-3.27,4.9-4.91.13-.13.21-.29.36-.49ZM28.11,31.25c.92.11,1.71.16,2.49.31.66.13,1.05-.16,1.38-.65.37-.55.3-1.28-.14-1.68-.47-.42-1.23-.42-1.72.04-.65.6-1.26,1.24-2,1.97ZM63.84,66.3c.71-.74,1.33-1.39,1.95-2.04.07-.08.11-.19.16-.29.22-.52.11-1.09-.27-1.43-.38-.34-1.01-.4-1.5-.11-.46.28-.79.6-.66,1.25.16.81.21,1.65.33,2.62ZM39.7,32.6c1,.12,1.88.2,2.75.33.43.06.66-.13.83-.48.28-.57.16-1.22-.28-1.57-.44-.35-1.18-.36-1.64.06-.55.49-1.05,1.04-1.66,1.65ZM62.51,54.8c.59-.59,1.15-1.08,1.63-1.63.46-.52.41-1.29-.03-1.73-.41-.41-1.2-.45-1.68-.04-.14.12-.26.37-.25.55.08.92.21,1.84.33,2.85Z"/>
      <path class="cls-1" d="M63.64,28.02c1.75.03,3.2,1.28,3.3,2.85.04.63-.23,1.06-.72,1.14-.51.09-.91-.24-1.06-.89-.19-.82-.73-1.25-1.69-1.32-.7-.06-1.05-.47-.93-1.08.1-.5.43-.71,1.09-.7Z"/>
    </g>
  </g>
</svg>