<?xml version="1.0" encoding="UTF-8"?>
<svg id="Layer_1" xmlns="http://www.w3.org/2000/svg" viewBox="0 0 100 100">
  <defs>
    <style>
      .cls-1 {
        fill: #fff;
      }

      .cls-2 {
        fill: #1860d3;
      }
    </style>
  </defs>
  <circle class="cls-2" cx="50" cy="50" r="48.13"/>
  <g id="NlOuvm.tif">
    <g>
      <path class="cls-1" d="M13.75,60.47c.92-3.56,3.7-4.98,6.87-5.89,1.24-.35,2.56-.54,3.84-.58,1.96-.06,3.6-.71,5.03-2.03,2.67-2.44,5.38-4.83,8.04-7.28,1.81-1.66,3.89-2.49,6.36-2.47,4.46.03,8.92.05,13.38,0,3.01-.04,5.32.32,7.98,3.17.13-.21.26-.41.38-.61,1.82-3.15,3.64-6.3,5.45-9.45.47-.82.46-.84-.37-1.33-3.86-2.23-7.72-4.46-11.59-6.66-.3-.17-.71-.16-1.07-.18-.95-.05-1.91-.08-2.86-.1-.34,0-.72-.02-1.01.12-3.06,1.53-6.11,3.07-9.15,4.64-.29.15-.56.46-.68.75-.55,1.31-1.06,2.64-1.55,3.97-.23.62-.6.93-1.29.91-1.71-.05-3.42-.05-5.13-.09-.79-.02-1.16-.32-1.15-.88.01-.56.42-.86,1.19-.85,1.42.02,2.85.03,4.27.08.44.02.65-.13.79-.54.3-.86.68-1.7.96-2.57.09-.27.06-.67-.08-.92-.63-1.17-1.29-2.31-1.99-3.44-.14-.23-.44-.44-.7-.49-.87-.18-1.77-.25-2.63-.44-.57-.13-.81.09-1.05.56-.62,1.2-1.28,2.37-1.94,3.55-.42.75-.84.96-1.35.69-.53-.28-.59-.75-.19-1.49.81-1.48,1.65-2.94,2.42-4.44.34-.65.79-.84,1.47-.72,1.35.23,2.71.47,4.07.62.43.05.97-.03,1.33-.26,2.79-1.77,5.55-3.57,8.3-5.4.32-.21.62-.6.73-.97.81-2.65,3.06-4.41,5.83-4.5,2.63-.09,5.06,1.64,5.98,4.2.12.34.42.7.73.88,3.87,2.26,7.75,4.5,11.64,6.72.26.15.63.23.92.17,3.31-.64,6.41,1.22,7.3,4.41.88,3.16-.86,6.36-4.04,7.49-.3.11-.62.37-.78.65-2.6,4.45-5.16,8.92-7.76,13.37-.31.53-.18.79.29,1.01.3.14.62.26.94.36,2.59.8,4.28,2.99,4.32,5.69.03,2.24.03,4.48,0,6.72-.03,2.49-1.87,4.31-4.36,4.36-.05,0-.1,0-.14,0-1.71.02-1.8-.08-1.66-1.81.32-4.04-2.63-7.61-6.5-7.88-4.27-.3-7.71,2.68-7.95,6.89-.03.5.05,1.01.09,1.51.08.95-.2,1.28-1.17,1.28-3.04,0-6.08,0-9.12,0-2.22,0-4.44,0-6.66,0-1.37,0-1.56-.22-1.41-1.58.43-3.9-2.05-7.29-5.88-8.03-4.6-.89-8.94,3.01-8.52,7.67.17,1.91.14,1.94-1.81,1.94-1.16,0-2.32-.03-3.47,0-2,.06-3.27-.9-3.93-2.74v-7.81ZM71.85,69.21c1.57.05,2.65-1.03,2.66-2.64.02-2.17.02-4.34,0-6.51-.02-2.04-1.19-3.64-3.14-4.18-1.29-.36-2.21-1.09-2.91-2.21-1.3-2.09-2.66-4.14-3.95-6.22-1.46-2.36-3.53-3.5-6.31-3.48-4.75.03-9.5.03-14.25,0-2.04-.02-3.75.65-5.24,2.03-2.73,2.51-5.51,4.98-8.27,7.46-1.34,1.21-2.9,1.99-4.7,2.19-.86.1-1.74.08-2.59.19-2.18.29-4.24.92-5.99,2.32-.94.75-1.62,1.69-1.65,2.93-.05,2.17-.03,4.34,0,6.51,0,.87.6,1.58,1.45,1.62,1.39.07,2.78.02,4.25.02-.13-2.53.57-4.75,2.23-6.62,1.68-1.89,3.79-2.93,6.33-3.05,2.21-.1,4.19.52,5.93,1.88,2.51,1.97,3.58,4.63,3.5,7.76h14.64c-.11-6.33,4.8-9.56,8.6-9.66,2.29-.06,4.34.56,6.1,2.02,2.39,1.97,3.44,4.56,3.32,7.63ZM69.33,51.79c2.48-4.29,4.88-8.45,7.29-12.62q-2.26-.68-4.23-2.41s-.1.04-.12.08c-1.92,3.31-3.84,6.62-5.74,9.94-.09.15-.1.44-.01.58.9,1.45,1.82,2.88,2.82,4.44ZM61.23,21.13c0-2.44-1.96-4.41-4.4-4.42-2.42-.01-4.42,1.97-4.44,4.39-.01,2.45,2.01,4.48,4.45,4.46,2.43-.02,4.39-2,4.39-4.43ZM77.34,37.39c2.44,0,4.42-1.97,4.42-4.4,0-2.42-1.97-4.42-4.39-4.45-2.44-.03-4.45,1.99-4.45,4.45,0,2.44,1.97,4.4,4.41,4.4ZM73.64,27.98c-3.56-2.05-7.08-4.08-10.68-6.16-.27,1.77-1.08,3.17-2.49,4.28,3.6,2.08,7.13,4.11,10.67,6.16q.85-2.59,2.5-4.27ZM42.63,27.43c.57.99,1.1,1.9,1.65,2.85,2.89-1.47,5.72-2.91,8.39-4.26-.73-1.27-1.42-2.47-2.14-3.72-2.53,1.64-5.18,3.37-7.9,5.14Z"/>
      <path class="cls-1" d="M29.96,74.79c-.42-.09-.85-.16-1.26-.26-3.06-.77-4.97-3.54-4.66-6.73.28-2.9,2.89-5.34,5.83-5.44,3.18-.11,5.85,2.01,6.42,5.09.64,3.45-1.83,6.79-5.33,7.22-.19.02-.37.08-.56.12h-.43ZM34.62,68.53c0-2.47-1.98-4.45-4.45-4.45-2.46,0-4.44,1.98-4.44,4.45,0,2.46,1.99,4.46,4.45,4.46,2.46,0,4.44-2,4.44-4.46Z"/>
      <path class="cls-1" d="M62.66,74.79c-.45-.09-.9-.16-1.34-.27-3.09-.79-5.01-3.7-4.59-6.91.4-3.04,3.17-5.33,6.36-5.25,3.01.08,5.65,2.53,5.92,5.51.3,3.24-1.81,6.12-4.94,6.75-.33.07-.66.12-.99.18h-.43ZM58.42,68.56c0,2.46,2.02,4.46,4.47,4.44,2.46-.02,4.43-2.01,4.42-4.48,0-2.46-2-4.44-4.47-4.43-2.46,0-4.43,2-4.42,4.47Z"/>
      <path class="cls-1" d="M41.28,55.28c-2.29,0-4.58.02-6.86-.02-.37,0-.86-.23-1.06-.51-.3-.43.02-.85.4-1.17,2.51-2.18,5.01-4.36,7.53-6.53,1.14-.98,2.47-1.46,3.98-1.47.99,0,1.98,0,2.96,0,.81,0,1.11.28,1.12,1.06,0,2.53,0,5.06,0,7.58,0,.78-.31,1.06-1.12,1.06-2.31,0-4.62,0-6.94,0ZM47.57,47.3c-.65,0-1.25.03-1.84,0-1.43-.08-2.63.4-3.69,1.35-1.23,1.12-2.5,2.19-3.75,3.28-.57.5-1.13,1-1.78,1.57h11.07v-6.2Z"/>
      <path class="cls-1" d="M57.99,55.28c-1.93,0-3.86,0-5.79,0-.91,0-1.16-.24-1.17-1.16,0-2.48,0-4.96,0-7.45,0-.85.28-1.12,1.14-1.1,1.68.03,3.38-.03,5.05.15,1.63.17,2.93,1.1,3.85,2.45,1.27,1.85,2.5,3.72,3.7,5.61.18.28.25.8.1,1.05-.15.25-.63.42-.96.43-1.98.04-3.95.02-5.93.02ZM52.81,53.47h9.72c-1-1.51-1.88-2.99-2.93-4.33-.51-.65-1.27-1.22-2.03-1.53-1.53-.63-3.17-.22-4.77-.31v6.17Z"/>
    </g>
  </g>
</svg>