<?xml version="1.0" encoding="UTF-8"?>
<svg id="Layer_1" xmlns="http://www.w3.org/2000/svg" viewBox="0 0 100 100">
  <defs>
    <style>
      .cls-1 {
        fill: #fff;
      }

      .cls-2 {
        fill: #1860d3;
      }
    </style>
  </defs>
  <circle class="cls-2" cx="50" cy="50" r="48.13"/>
  <g id="ha1VNi.tif">
    <g>
      <path class="cls-1" d="M10.11,67.77c.39-.6.93-.77,1.64-.77,3.12.03,6.25.03,9.37,0,1.13-.01,2.07.36,2.89,1.12,2.71,2.51,5.44,5,8.14,7.51,1.51,1.41,3.28,2.07,5.33,2.07,5.21,0,10.41,0,15.62,0,.2,0,.4,0,.59-.02.98-.12,1.65-.87,1.63-1.8-.01-.86-.73-1.61-1.65-1.72-.22-.03-.45-.02-.67-.02-4.56,0-9.12,0-13.68-.01-1.17,0-2.18-.42-3.01-1.24-1.92-1.9-3.83-3.81-5.73-5.73-.63-.64-.67-1.31-.14-1.83.52-.52,1.19-.48,1.83.16,1.88,1.87,3.75,3.75,5.63,5.62.53.53,1.15.75,1.89.53.69-.21,1.08-.69,1.22-1.37.15-.76-.23-1.33-.75-1.84-2.74-2.73-5.47-5.46-8.21-8.2-.47-.47-.94-.95-1.42-1.42-1.7-1.68-3.75-2.52-6.15-2.52-4.21.01-8.43-.01-12.64.02-.73,0-1.3-.17-1.73-.75v-.89c.39-.59.94-.77,1.64-.76,4.26.03,8.52.02,12.79.01,3.03,0,5.61,1.07,7.75,3.2,3.11,3.1,6.17,6.23,9.32,9.29,1.55,1.5,2.27,3.15,1.46,5.32.24.02.42.05.61.05,3.22,0,6.44,0,9.66,0,2.2,0,4.09,1.54,4.35,3.59.27,2.17-1.06,4.04-3.29,4.62-.09.02-.18.08-.26.12h-17.85c-.09-.04-.18-.1-.27-.11-2.26-.26-4.11-1.31-5.75-2.85-2.57-2.41-5.18-4.77-7.75-7.17-.47-.44-.96-.61-1.6-.61-3,.02-6,0-9,.02-.74,0-1.36-.14-1.81-.74v-.89Z"/>
      <path class="cls-1" d="M45.81,58.69c-2.07.14-3.91-.26-5.39-1.73-1.48-1.47-1.89-3.31-1.74-5.4-1.13,0-2.18,0-3.24,0-.98,0-1.55-.46-1.53-1.22.02-.73.56-1.16,1.51-1.16,1.04,0,2.08,0,3.18,0v-8.33c-1.11,0-2.24.01-3.37,0-.92-.01-1.52-.72-1.29-1.49.19-.62.65-.9,1.3-.89,1.11,0,2.22,0,3.37,0v-8.33c-.79,0-1.59,0-2.4,0-.3,0-.59,0-.89,0-.88-.01-1.41-.46-1.42-1.18,0-.72.53-1.19,1.39-1.2,1.09-.01,2.17,0,3.37,0-.15-2.04.24-3.88,1.7-5.36,1.47-1.48,3.29-1.93,5.43-1.75,0-.86,0-1.66,0-2.47,0-.3,0-.59,0-.89.01-.88.46-1.41,1.17-1.42.72,0,1.19.53,1.2,1.39.01,1.09,0,2.17,0,3.31h8.33c0-1.07,0-2.13,0-3.19,0-.96.42-1.49,1.15-1.52.76-.02,1.22.54,1.22,1.52,0,1.04,0,2.08,0,3.17h8.33c0-1.15-.01-2.3,0-3.45.01-.69.44-1.16,1.05-1.24.58-.07,1.14.32,1.28.91.05.24.04.49.04.74,0,1.01,0,2.02,0,3.12,2.06-.15,3.91.25,5.38,1.72,1.47,1.47,1.91,3.3,1.73,5.41,1.23,0,2.39-.02,3.54,0,.72.01,1.21.49,1.24,1.13.03.64-.45,1.17-1.13,1.23-.25.02-.5,0-.74,0-.94,0-1.87,0-2.84,0v8.33c1.13,0,2.25-.01,3.38,0,.86.01,1.43.6,1.33,1.34-.09.63-.58,1.03-1.33,1.04-1.11.01-2.22,0-3.37,0v8.33c.78,0,1.59,0,2.39,0,.27,0,.55,0,.82,0,.94,0,1.49.44,1.5,1.17.01.74-.54,1.2-1.47,1.21-1.06,0-2.12,0-3.29,0,.14,2.03-.24,3.88-1.7,5.36-1.47,1.49-3.3,1.92-5.43,1.76,0,.87,0,1.7,0,2.54,0,.3,0,.59,0,.89-.02.82-.48,1.34-1.18,1.35-.7,0-1.19-.51-1.2-1.32-.02-1.11,0-2.22,0-3.38h-8.33c0,1.07,0,2.13,0,3.19,0,.95-.43,1.49-1.16,1.51-.76.02-1.21-.55-1.22-1.53,0-1.04,0-2.08,0-3.17h-8.33c0,1.15.02,2.31,0,3.46-.02.75-.54,1.25-1.21,1.23-.64-.01-1.11-.5-1.16-1.21-.01-.2,0-.4,0-.59,0-.94,0-1.88,0-2.96ZM50.57,56.32c0-2.27,0-4.47,0-6.67,0-1.27.37-1.64,1.63-1.64,3.64,0,7.29,0,10.93,0,.48,0,.78-.08,1.04-.57.78-1.45,2.43-2.11,3.99-1.68,1.56.43,2.65,1.85,2.64,3.46-.01,1.61-1.11,3.01-2.69,3.42-1.57.41-3.19-.27-3.97-1.73-.22-.42-.46-.54-.91-.53-3.2.02-6.39,0-9.59.01-.21,0-.43.03-.63.04v5.9c6.03,0,12,.03,17.97-.01,1.89-.01,3.37-1.63,3.38-3.56.01-8.72.01-17.45,0-26.17,0-1.74-1.17-3.24-2.89-3.46-1.38-.17-2.8-.04-4.25-.04,0,.3,0,.56,0,.83,0,5.5,0,11,0,16.5,0,1.25-.38,1.63-1.65,1.63-4.46,0-8.92,0-13.38,0-.45,0-.69.11-.91.53-.79,1.47-2.4,2.15-3.97,1.74-1.61-.42-2.71-1.85-2.69-3.49.02-1.61,1.12-3,2.71-3.41,1.57-.4,3.18.28,3.96,1.75.23.43.48.52.92.52,3.99-.01,7.98,0,11.97-.01.21,0,.43-.03.63-.04v-16.58c-.15-.01-.27-.03-.39-.03-6.62,0-13.24-.01-19.85,0-1.77,0-3.3,1.32-3.46,3.07-.12,1.32-.02,2.66-.02,4.06h.69c3.57,0,7.14,0,10.71,0,.47,0,.73-.11.97-.56.78-1.45,2.42-2.12,3.99-1.7,1.57.42,2.66,1.84,2.65,3.45,0,1.61-1.1,3.02-2.67,3.43-1.57.41-3.21-.26-3.98-1.71-.24-.46-.52-.55-.98-.55-3.57.01-7.14,0-10.71,0-.22,0-.43.02-.63.03-.03.09-.06.14-.06.18,0,6.74-.03,13.48,0,20.22,0,1.76,1.52,3.27,3.29,3.33,2.03.07,4.06.02,6.21.02ZM56.51,32.53c.64,0,1.19-.53,1.19-1.18,0-.64-.53-1.19-1.18-1.19-.64,0-1.19.53-1.19,1.18,0,.64.53,1.19,1.18,1.19ZM49.37,40.87c0-.64-.53-1.19-1.18-1.19-.64,0-1.19.53-1.19,1.17,0,.64.53,1.19,1.17,1.19.64,0,1.19-.53,1.19-1.18ZM67.22,50.37c.64,0,1.19-.53,1.19-1.18,0-.64-.53-1.19-1.18-1.19-.64,0-1.19.53-1.19,1.18,0,.64.53,1.19,1.18,1.19Z"/>
    </g>
  </g>
</svg>