<?xml version="1.0" encoding="UTF-8"?>
<svg id="Layer_1" xmlns="http://www.w3.org/2000/svg" viewBox="0 0 100 100">
  <defs>
    <style>
      .cls-1 {
        fill: #fff;
      }

      .cls-2 {
        fill: #1860d3;
      }
    </style>
  </defs>
  <circle class="cls-2" cx="50" cy="50" r="48.13"/>
  <g id="gIZjun.tif">
    <g>
      <path class="cls-1" d="M70.94,50.04c1,.85,1.66,1.82,1.88,3.03.33,1.83-.21,3.38-1.54,4.67-2.79,2.72-5.57,5.45-8.35,8.17-.39.38-.8.76-1.18,1.16-1.44,1.52-3.2,2.19-5.28,2.18-4.51-.03-9.02.01-13.53-.01-.69,0-1.21.16-1.65.69-.24.29-.58.49-.95.79.79.77,1.46,1.41,2.12,2.06.66.66.66,1.05,0,1.71-2.17,2.17-4.34,4.34-6.51,6.51-.68.68-1.03.68-1.71,0-5.41-5.4-10.81-10.8-16.21-16.2-.69-.69-.69-1.07,0-1.76,2.15-2.16,4.31-4.31,6.46-6.47.7-.7,1.06-.7,1.76,0,.52.52,1.02,1.06,1.58,1.65,2.01-1.83,3.96-3.6,5.8-5.27-.66-1.73-1.3-3.42-1.98-5.1-.06-.15-.34-.28-.52-.29-.72-.03-1.44,0-2.16-.02-.84,0-1.11-.24-1.23-1.04-.32-2.02-.39-4.04-.15-6.07.05-.39-.1-.56-.42-.73-4.1-2.3-6.36-6.76-5.76-11.34.61-4.62,3.97-8.39,8.51-9.54,4.92-1.24,10.13,1.02,12.62,5.47.1.18.2.36.31.54.97-.33,1.91-.64,2.91-.98,0-.86,0-1.75,0-2.63,0-.78.19-1.01.97-1.14,2.51-.42,5.01-.42,7.52,0,.77.13.95.36.96,1.15,0,.74-.02,1.48.02,2.22,0,.18.15.45.3.51,1.66.67,3.33,1.3,5.16,2,.46-.48,1.06-1.11,1.66-1.73.58-.58.93-.6,1.6-.11,2.01,1.45,3.73,3.18,5.19,5.18.35.47.52.92.1,1.48,4.9-1.24,8.94-.02,11.68,4.27,2.15,3.38,2.1,6.99-.03,10.38-2.24,3.58-5.64,5.01-9.95,4.61ZM39.27,69.5c.42-.43.86-.82,1.23-1.28.49-.6,1.08-.76,1.84-.76,4.72.02,9.44,0,14.16,0,1.34,0,2.57-.28,3.56-1.24,3.4-3.31,6.79-6.62,10.17-9.94.72-.71,1.03-1.6.9-2.61-.17-1.28-.86-2.21-2.08-2.64-1.26-.44-2.43-.18-3.4.76-2.65,2.59-5.29,5.18-7.94,7.77-.12.12-.23.25-.33.38-.96,1.33-2.26,1.98-3.91,1.98-3.83,0-7.66,0-11.49,0-.15,0-.3.01-.44-.01-.45-.07-.73-.34-.76-.8-.03-.49.22-.81.69-.93.2-.05.42-.03.63-.03,3.77,0,7.53.02,11.3-.02.62,0,1.31-.21,1.84-.53,1.02-.61,1.39-1.88,1.05-3.01-.34-1.14-1.36-1.93-2.62-1.94-2.71-.02-5.42.01-8.13-.03-.45,0-.97-.17-1.34-.43-2.98-2.11-5.92-2.29-8.89-.14-2.2,1.6-4.15,3.53-6.19,5.29,3.41,3.41,6.74,6.74,10.15,10.15ZM58.2,56.56c.12-.11.28-.24.43-.39,1.88-1.83,3.74-3.69,5.64-5.49.5-.47,1.08-1.01,1.7-1.16,1.04-.24,1.3-.93,1.5-1.77.08-.31.17-.61.24-.92.22-.92.38-1.05,1.35-1.05.82,0,1.63,0,2.53,0v-5.94c-.99,0-1.86-.01-2.72,0-.63.01-.99-.27-1.12-.88-.43-2-1.22-3.86-2.3-5.6-.41-.66-.38-.96.17-1.51.61-.61,1.22-1.21,1.95-1.93-1.44-1.43-2.81-2.8-4.22-4.21-.73.74-1.34,1.34-1.94,1.97-.43.45-.88.54-1.41.19-1.76-1.14-3.67-1.91-5.71-2.37-.6-.13-.86-.49-.86-1.07,0-.74-.01-1.48,0-2.22,0-.34-.09-.53-.45-.53-1.67,0-3.34,0-5,0-.35,0-.47.16-.46.51.02.72,0,1.44,0,2.16.01.64-.26,1.03-.91,1.17-2.02.44-3.91,1.23-5.65,2.35-.53.34-.99.28-1.41-.18-.59-.63-1.2-1.25-1.93-2.01-1.44,1.44-2.82,2.82-4.28,4.28.73.7,1.34,1.25,1.92,1.83.62.6.65.89.2,1.61-1.07,1.7-1.81,3.53-2.27,5.48-.18.76-.41.95-1.18.95-.86,0-1.72,0-2.68,0v5.94c.94,0,1.76,0,2.58,0,.91,0,1.08.14,1.3,1.04.44,1.8,1.09,3.5,2,4.96,1.52-.4,2.98-.79,4.39-1.16-5.14-7.31-1.61-15.92,4-19.22,5.89-3.47,13.47-2.02,17.54,3.5,2.1,2.85,2.97,6.06,2.51,9.57-.57,4.36-2.86,7.64-6.53,9.89.37.76.72,1.48,1.07,2.21ZM50.47,31.29c-8.05,0-13.64,8.05-10.77,15.58.84,2.2,2.05,4.18,4.38,5.18.31.13.56.38.87.53.29.14.62.29.93.29,2.46.02,4.91,0,7.37.02.52,0,1.07.02,1.57.17.51.16.89.04,1.31-.19,4.56-2.55,6.83-7.88,5.52-12.97-1.29-5.04-5.92-8.61-11.16-8.6ZM40.72,73.74c-5.16-5.16-10.29-10.29-15.38-15.38-1.83,1.83-3.72,3.71-5.56,5.55,5.1,5.1,10.22,10.22,15.37,15.37.06-.05.17-.15.27-.25,1.78-1.77,3.56-3.55,5.3-5.28ZM41.2,25.66c-1.7-3.74-5.87-5.89-10.12-5.27-3.81.56-7.08,3.72-7.8,7.53-.76,4.04,1.04,8.1,4.45,10.06.14.08.31.18.46.18.99-.02,1.98-.09,2.96-.1.35,0,.43-.15.55-.45.59-1.49,1.21-2.97,1.85-4.43.13-.3.15-.47-.09-.7-.54-.51-1.06-1.04-1.57-1.57-.57-.58-.59-.89-.11-1.55,1.47-2.05,3.23-3.8,5.27-5.27.64-.46,1-.44,1.55.13.62.63,1.22,1.28,1.81,1.9.35-.2.56-.33.8-.47ZM67.8,33.64c.5,1.39.98,2.76,1.5,4.12.05.14.3.28.46.28.76.03,1.52,0,2.28.01.77,0,1.04.26,1.16,1.04.38,2.44.39,4.88,0,7.33-.14.9-.37,1.12-1.28,1.12-.83,0-1.66,0-2.61,0,2.23,1.75,7.02.63,9.36-2.07,2.78-3.21,2.54-8.14-.52-11.09-3.43-3.3-8.19-2.62-10.37-.74Z"/>
      <path class="cls-1" d="M49.58,36.93c0-.67-.01-1.24,0-1.8.02-.61.4-1.01.92-.99.49.02.84.41.85.99.01.57,0,1.14,0,1.8.79,0,1.54,0,2.29,0,.34,0,.68-.02,1.01.02.51.06.81.36.83.88.02.48-.36.86-.89.87-1.14.02-2.29,0-3.43,0-.8,0-1.61-.02-2.41,0-.98.03-1.56.68-1.54,1.64.02.94.59,1.53,1.56,1.55,1.12.02,2.24-.02,3.36.02,2.48.08,3.99,2.31,3.14,4.62-.44,1.19-1.3,1.9-2.57,2.08-.42.06-.84.07-1.35.11,0,.56,0,1.12,0,1.68,0,.67-.36,1.08-.91,1.07-.52-.01-.85-.41-.87-1.05,0-.27,0-.55,0-.82,0-.27,0-.54,0-.92-.7,0-1.37,0-2.03,0-.4,0-.81.02-1.21-.01-.54-.04-.89-.34-.88-.89,0-.55.34-.85.89-.87.38-.01.76,0,1.14,0,1.52,0,3.05.02,4.57,0,1.24-.02,1.9-.93,1.59-2.09-.2-.73-.69-1.1-1.57-1.11-1.12-.02-2.24-.01-3.36-.01-2.69,0-3.94-2.77-2.93-4.91.56-1.18,1.55-1.74,2.83-1.83.29-.02.59,0,.96,0Z"/>
    </g>
  </g>
</svg>