<?xml version="1.0" encoding="UTF-8"?>
<svg id="Layer_1" xmlns="http://www.w3.org/2000/svg" viewBox="0 0 100 100">
  <defs>
    <style>
      .cls-1 {
        fill: #fff;
      }

      .cls-2 {
        fill: #1860d3;
      }
    </style>
  </defs>
  <circle class="cls-2" cx="50" cy="50" r="48.13"/>
  <g id="KZTIIV.tif">
    <g>
      <path class="cls-1" d="M84.5,53.58c-.15.63-.26,1.28-.45,1.9-.65,2.16-1.82,4.01-3.62,5.34-1.38,1.01-1.79,2.07-1.4,3.8.67,2.98.99,6.04,1.51,9.06.21,1.19.02,2.18-.94,2.98-.34.29-.64.64-.96.95-1.29,1.26-2.84,1.11-3.83-.38-1.42-2.14-2.83-4.29-4.25-6.43-.13-.2-.28-.4-.44-.64-1.27,1.14-2.49,2.24-3.69,3.36-.15.14-.22.43-.23.66-.08,1.15-.05,2.31-.22,3.44-.08.58-.41,1.17-.75,1.67-.36.51-.86.92-1.32,1.35-1.28,1.22-3.04.91-3.8-.69-.69-1.46-1.35-2.94-2.03-4.43-9.63,4.54-19.16,4.57-28.42-.79-7.26-4.21-11.89-10.56-13.72-18.76-3.66-16.4,6.98-32.05,22.84-35.1,9.41-1.81,17.9.44,25.09,6.82,7.17,6.37,10.28,14.53,9.81,24.2.28-.22.47-.37.65-.51,1.74-1.4,3.72-2.18,5.94-2.37,2.1-.18,3.25.64,4.25,2.95v1.62ZM71.16,54.76c.5-2.33.55-4.58.49-6.83-.01-.63-.23-.78-.83-.78-5.17.02-10.33.01-15.5.01-.34,0-.68,0-1.01-.03-2.34-.19-4.09-2.11-4.02-4.37.07-2.37,1.94-4.18,4.34-4.2,1.33-.01,2.66.02,3.99-.01,1.31-.03,2.3-1.02,2.31-2.26.01-1.27-.99-2.27-2.33-2.31-.63-.02-1.26,0-1.89,0-2.18-.04-4.01-1.67-4.27-3.78-.27-2.17,1.03-4.16,3.12-4.78.27-.08.55-.14.88-.22-4.6-2.55-11.74-3.82-18.7-2.03-4.68,1.21-8.75,3.49-12.35,7,.43,0,.66,0,.88,0,.86,0,1.71,0,2.57,0,1.06,0,1.52.3,1.53,1,0,.7-.48,1.03-1.5,1.03-1.58,0-3.16.02-4.74-.01-.48,0-.78.15-1.07.53-4.62,6.06-6.55,12.87-5.57,20.44.89,6.86,4.05,12.53,9.26,17.07.19.17.46.36.69.36,3.22.02,6.45.06,9.67-.03,1.63-.04,2.78-1.42,2.71-2.97-.07-1.59-1.33-2.75-3.01-2.76-1.2,0-2.39.02-3.59-.01-2.29-.07-3.84-2.34-3.1-4.5.49-1.43,1.74-2.28,3.4-2.29,4.24,0,8.48,0,12.72,0,1.13,0,2.15-.28,2.95-1.11,1.09-1.13,1.39-2.47.84-3.93-.56-1.49-1.69-2.34-3.29-2.39-1.98-.07-3.98.07-5.95-.09-3.32-.27-5.43-2.91-5.3-6.41.1-2.93,2.44-5.08,5.63-5.28.64-.04,1.33-.3,1.87-.66,1.19-.79,1.62-2.31,1.18-3.66-.45-1.36-1.66-2.28-3.11-2.29-2.26-.02-4.51,0-6.77-.01-.73,0-1.2-.41-1.21-1-.01-.6.45-1.02,1.17-1.02,2.35,0,4.69-.04,7.04.02,3.22.08,5.64,3.26,4.96,6.4-.54,2.49-2.59,4.19-5.15,4.28-1.81.06-3.17,1.13-3.53,2.78-.57,2.56,1.22,4.85,3.85,4.89,1.8.03,3.61-.03,5.41.03,3.74.13,6.33,3.84,5.21,7.42-.78,2.52-2.97,4.05-5.83,4.06-4.17.01-8.35,0-12.52,0-1.12,0-1.72.47-1.73,1.35,0,.9.61,1.39,1.76,1.39,1.06,0,2.12-.06,3.18.02.71.05,1.44.19,2.09.47,2.1.92,3.19,3.2,2.72,5.48-.46,2.23-2.42,3.8-4.85,3.84-1.96.03-3.92,0-5.89,0-.23,0-.46.02-.79.04,5.82,4.61,19.33,5.47,25.34,1.68-.74-.34-1.47-.64-2.16-1-1.43-.73-1.73-2.47-.63-3.65.48-.51.94-1.05,1.5-1.47.45-.33,1.01-.62,1.55-.69,1.16-.15,2.34-.14,3.51-.22.21-.01.48-.06.61-.2,1.14-1.22,2.24-2.46,3.4-3.73-.25-.17-.45-.31-.65-.44-2.18-1.44-4.37-2.87-6.54-4.33-1.24-.83-1.54-2.37-.57-3.39,2.46-2.59,2.12-2.63,5.44-2.04.04,0,.09,0,.13.02.6.14.97.63.87,1.17-.1.56-.6.91-1.21.83-.56-.07-1.11-.18-1.67-.25-.17-.02-.4-.03-.51.07-.58.49-1.13,1.01-1.8,1.63,2.74,1.81,5.29,3.5,7.89,5.22,1.57-1.73,3.14-3.46,4.76-5.25-.34-.07-.56-.11-.78-.15-1-.16-2.01-.3-3-.49-.71-.13-1.03-.56-.95-1.16.08-.59.54-.9,1.24-.83.25.03.49.07.74.11,1.46.23,2.93.46,4.45.7ZM80.61,51.01c-1.74.04-3.76.81-5.17,2.07-.72.64-1.36,1.38-2.01,2.09-4.05,4.48-8.09,8.97-12.16,13.44-.28.31-.71.58-1.11.64-.82.13-1.67.2-2.49.13-1.36-.12-2.37.37-3.21,1.41-.37.46-.36.64.17.87,1.42.62,2.85,1.25,4.23,1.94.4.2.8.59,1.01.99.62,1.2,1.14,2.45,1.7,3.68.61,1.36.47,1.32,1.59.29.64-.6.96-1.23.93-2.11-.03-.9.11-1.8.1-2.7-.01-.7.25-1.18.76-1.63,4.86-4.37,9.71-8.76,14.56-13.13,1.81-1.63,2.82-3.66,2.97-6.09.08-1.2-.66-1.91-1.85-1.88ZM71.28,45.13c-.03-.3-.03-.51-.07-.7-1.43-7.02-5.01-12.66-10.77-16.92-.16-.12-.35-.26-.53-.26-1.19,0-2.39-.04-3.58.08-1.06.11-1.82,1.05-1.88,2.08-.09,1.4.9,2.47,2.31,2.54,1.03.05,2.1-.03,3.09.21,2.02.48,3.37,2.57,3.1,4.57-.29,2.2-2.01,3.78-4.21,3.84-1.42.04-2.84-.01-4.26.02-1.11.03-1.97.87-2.13,1.99-.14,1,.49,2.06,1.49,2.39.36.12.75.15,1.13.15,5.21,0,10.42,0,15.63,0,.2,0,.4,0,.69,0ZM71.65,68.77c1.73,2.62,3.42,5.16,5.1,7.7l.31.14c.28-.38.5-.83.86-1.13.62-.51.7-1.08.56-1.84-.38-2.1-.68-4.22-1.02-6.33-.17-1.07-.35-2.15-.55-3.33-1.81,1.64-3.52,3.19-5.26,4.77Z"/>
      <path class="cls-1" d="M49.5,15.02c.7.13,1.48.24,2.24.45.5.14.76.57.66,1.11-.11.55-.5.89-1.06.83-.76-.08-1.51-.22-2.25-.41-.51-.13-.78-.55-.69-1.09.09-.56.47-.84,1.11-.89Z"/>
      <path class="cls-1" d="M67.74,25.88c-.26-.06-.4-.05-.48-.11-.7-.59-1.43-1.16-2.06-1.81-.32-.33-.21-.82.12-1.16.34-.37.81-.5,1.21-.19.66.5,1.3,1.04,1.85,1.65.19.21.18.74.06,1.04-.11.27-.51.43-.7.58Z"/>
      <path class="cls-1" d="M60.84,18.9c.32.1.51.13.66.22.62.36,1.25.71,1.83,1.12.48.33.56.92.24,1.37-.34.45-.8.59-1.3.31-.63-.35-1.24-.72-1.84-1.11-.43-.28-.58-.74-.36-1.18.16-.31.54-.52.77-.73Z"/>
      <path class="cls-1" d="M28.61,20.39c-.1.13-.26.46-.52.66-.52.38-1.09.71-1.65,1.03-.55.31-1.11.19-1.42-.29-.31-.48-.2-1.04.33-1.4.57-.39,1.16-.77,1.78-1.08.71-.37,1.49.1,1.49,1.09Z"/>
      <path class="cls-1" d="M78.21,40.53c-.28.28-.51.66-.85.81-.44.21-.94.04-1.14-.43-.31-.76-.6-1.56-.73-2.36-.05-.3.29-.79.59-1,.4-.27.96-.14,1.17.31.37.81.61,1.67.96,2.67Z"/>
      <path class="cls-1" d="M70.37,26.66c.33.2.63.29.81.49.47.54.92,1.1,1.34,1.69.34.48.22,1.05-.22,1.37-.44.33-.98.28-1.38-.18-.45-.53-.92-1.05-1.27-1.65-.17-.28-.19-.75-.07-1.06.11-.27.5-.44.8-.67Z"/>
      <path class="cls-1" d="M44.29,16.72c-.36,0-.72.03-1.08,0-.6-.05-.97-.46-.96-1.01,0-.57.36-.95.98-.98.67-.03,1.35-.04,2.03-.01.63.02,1.06.45,1.05,1,0,.55-.43.96-1.07,1-.31.02-.63,0-.95,0,0,0,0,0,0,.01Z"/>
      <path class="cls-1" d="M57.38,19.34c-.99-.41-1.87-.69-2.66-1.14-.23-.13-.36-.81-.23-1.1.13-.29.69-.63.98-.56.82.18,1.64.48,2.37.89.26.14.43.76.35,1.09-.08.32-.52.55-.81.83Z"/>
      <path class="cls-1" d="M34.19,17.83c-.1.13-.25.5-.52.64-.68.34-1.39.62-2.12.84-.53.16-.98-.05-1.19-.6-.21-.54-.03-1,.48-1.24.67-.32,1.36-.59,2.06-.81.7-.21,1.3.26,1.3,1.17Z"/>
      <path class="cls-1" d="M37.31,17.47c-.64,0-1.02-.23-1.13-.77-.11-.56.09-1.02.66-1.16.76-.19,1.54-.34,2.32-.42.54-.06.9.28.98.82.08.54-.14.96-.67,1.1-.74.19-1.5.31-2.15.43Z"/>
      <path class="cls-1" d="M74.1,31.84c.16.12.52.3.71.58.36.54.64,1.13.92,1.72.28.59.11,1.14-.38,1.41-.52.28-1.09.09-1.42-.5-.32-.57-.64-1.14-.91-1.73-.32-.7.13-1.45,1.07-1.48Z"/>
      <path class="cls-1" d="M21.58,25.38c-.15-.13-.55-.33-.65-.62-.11-.3-.02-.76.16-1.04.22-.34.58-.66.95-.83.3-.13.77-.15,1.05,0,.25.14.45.56.47.88.04.59-1.17,1.63-1.98,1.61Z"/>
      <path class="cls-1" d="M76.92,44.52c.03-.59.3-.98.87-1.07.57-.09.97.2,1.12.74.11.41.17.84.17,1.26,0,.53-.3.89-.85.97-.57.08-.97-.19-1.12-.74-.11-.38-.13-.8-.18-1.17Z"/>
      <path class="cls-1" d="M25.9,42.49c-.32,0-.63.01-.95,0-.57-.03-.92-.34-.98-.92-.05-.56.3-1.03.89-1.07.72-.05,1.44-.06,2.16,0,.56.05.88.43.89,1.01,0,.54-.41.94-1,.97-.34.02-.68,0-1.01,0Z"/>
      <path class="cls-1" d="M45.44,27.21c-.36,0-.72.03-1.08,0-.55-.05-.86-.38-.89-.92-.03-.55.24-.97.77-1.02.78-.07,1.57-.07,2.35,0,.54.04.83.46.8,1-.03.57-.36.91-.95.95-.34.02-.68,0-1.01,0,0,0,0,0,0,0Z"/>
      <path class="cls-1" d="M46.86,69.01c-.34,0-.68.02-1.01,0-.58-.04-.92-.39-.96-.95-.04-.57.3-.98.86-1.04.74-.07,1.49-.07,2.23,0,.56.05.89.46.86,1.03-.03.57-.37.91-.95.95-.34.02-.68,0-1.01,0Z"/>
      <path class="cls-1" d="M24.61,54.26c.34,0,.68-.03,1.01,0,.57.06.9.39.94.96.04.54-.36,1-.94,1.04-.67.04-1.35.03-2.03,0-.59-.03-.97-.45-.98-1,0-.55.38-.96.97-1.01.34-.03.68,0,1.01,0Z"/>
      <path class="cls-1" d="M51.1,65.25c-.36,0-.72.03-1.08,0-.55-.06-.85-.4-.87-.94-.02-.55.26-.95.8-1,.76-.06,1.53-.07,2.29,0,.57.04.88.46.84,1.03-.03.53-.36.87-.9.92-.36.03-.72,0-1.08,0,0,0,0,0,0,0Z"/>
      <path class="cls-1" d="M29.23,45.15c.36,0,.72-.03,1.08,0,.54.05.86.38.88.93.02.58-.27.98-.85,1.02-.74.05-1.49.06-2.22,0-.57-.04-.88-.45-.86-1.02.02-.54.34-.88.89-.93.36-.03.72,0,1.08,0Z"/>
    </g>
  </g>
</svg>