<?xml version="1.0" encoding="UTF-8"?>
<svg id="Layer_1" xmlns="http://www.w3.org/2000/svg" viewBox="0 0 100 100">
  <defs>
    <style>
      .cls-1 {
        fill: #fff;
      }

      .cls-2 {
        fill: #1860d3;
      }
    </style>
  </defs>
  <circle class="cls-2" cx="50" cy="50" r="48.13"/>
  <g id="_x38_ErbN3.tif">
    <g>
      <path class="cls-1" d="M49.15,85.15c-.2-.06-.4-.13-.6-.18-3.1-.83-4.92-3.91-4.17-7.06.03-.14.07-.27.13-.48-5.45-3.14-10.89-6.29-16.38-9.46-.18.17-.35.32-.52.47-1.77,1.6-4.31,1.97-6.44.94-2.17-1.05-3.4-3.23-3.24-5.71.15-2.27,1.78-4.32,4.06-5,.51-.15.65-.36.64-.87-.02-5.86-.01-11.72,0-17.58,0-.48-.08-.73-.62-.88-2.28-.67-3.92-2.72-4.08-4.99-.18-2.5,1.08-4.71,3.28-5.76,2.13-1.02,4.69-.64,6.42,1.01.38.37.62.37,1.06.11,5.06-2.94,10.13-5.87,15.21-8.78.47-.27.57-.5.45-1.03-.54-2.36.41-4.71,2.38-6.05,1.97-1.34,4.54-1.34,6.51,0,1.96,1.33,2.91,3.7,2.37,6.05-.13.54,0,.77.46,1.03,5.08,2.91,10.14,5.84,15.21,8.77.18.1.37.2.58.32,1.08-1.09,2.32-1.83,3.88-1.96,3.01-.26,5.6,1.68,6.22,4.67.58,2.83-1.11,5.71-3.92,6.58-.57.18-.7.42-.7.98.02,5.81.02,11.63,0,17.44,0,.57.16.79.71.97,2.26.75,3.63,2.35,3.95,4.69.32,2.31-.55,4.19-2.45,5.57-.46.33-.94.45-1.43.08-.63-.47-.57-1.25.16-1.77,1.09-.78,1.68-1.81,1.67-3.17-.02-1.65-1.17-3.1-2.77-3.49-1.64-.4-3.34.36-4.13,1.85-.79,1.49-.47,3.33.79,4.44.19.17.42.3.62.47.45.39.55.87.25,1.39-.28.49-.88.64-1.42.34-.27-.14-.51-.34-.75-.53-.22-.18-.42-.38-.65-.59-.18.09-.37.18-.55.28-5.09,2.94-10.18,5.88-15.27,8.81-.42.24-.57.43-.45.97.74,3.22-1.2,6.23-4.45,6.98-.11.03-.21.08-.32.13h-1.69ZM45.55,22.43c-5.33,3.08-10.62,6.13-15.92,9.18-.39.22-.43.43-.33.84.73,3.04-.98,6.03-3.97,6.91-.5.15-.6.36-.6.83.01,5.88.01,11.77,0,17.65,0,.47.11.68.6.82,3,.89,4.7,3.86,3.96,6.91-.12.47.02.66.4.88,3.73,2.14,7.46,4.29,11.18,6.44,1.56.9,3.12,1.81,4.67,2.7,3.24-2.7,5.34-2.7,8.88-.03.04-.01.09-.02.13-.04,5.27-3.04,10.54-6.09,15.82-9.12.37-.21.38-.41.29-.79-.73-3.08.99-6.07,4.01-6.95.48-.14.56-.35.56-.78-.01-5.91-.01-11.81,0-17.72,0-.43-.09-.64-.57-.78-2.97-.86-4.72-3.81-4.02-6.82.13-.56,0-.78-.46-1.04-5.12-2.93-10.22-5.89-15.33-8.84-.16-.09-.32-.16-.47-.23-2.3,2.44-6.02,2.83-8.84-.01ZM50.09,14.97c-2.03-.05-3.73,1.57-3.77,3.59-.04,2.03,1.59,3.72,3.6,3.75,2,.03,3.68-1.57,3.73-3.55.06-2.03-1.56-3.74-3.57-3.78ZM49.99,83.03c2.02,0,3.68-1.66,3.67-3.69,0-2-1.64-3.64-3.63-3.65-2.03-.02-3.7,1.63-3.71,3.65,0,2.03,1.64,3.69,3.67,3.69ZM79.94,33.82c0-2.05-1.63-3.67-3.67-3.67-2.02,0-3.68,1.68-3.66,3.7.02,2,1.65,3.62,3.66,3.63,2.05,0,3.68-1.61,3.68-3.66ZM23.66,30.16c-2.04.02-3.64,1.66-3.62,3.71.02,2.01,1.64,3.61,3.66,3.61,2.03,0,3.69-1.66,3.68-3.68-.01-2.03-1.68-3.66-3.71-3.64ZM20.04,64.22c.01,2.01,1.62,3.61,3.64,3.62,2.03.01,3.69-1.64,3.69-3.66,0-2.02-1.67-3.67-3.7-3.66-2.05.01-3.65,1.64-3.64,3.7Z"/>
      <path class="cls-1" d="M65.55,41.24c-1.22.7-2.31,1.3-3.36,1.96-.18.11-.29.46-.29.7-.02,1.95-.04,3.91,0,5.86.02,1.09-.39,1.83-1.35,2.34-.96.5-1.87,1.08-2.82,1.61-1.37.77-2.53.11-2.54-1.45-.01-1.62,0-3.24,0-4.96-.22.09-.39.14-.54.23-.92.52-1.8,1.12-2.76,1.57-.71.34-.87.79-.86,1.53.04,4.92.02,9.84.02,14.75,0,.27,0,.55,0,.94.32-.17.52-.26.72-.37,4.32-2.49,8.63-4.99,12.95-7.46.6-.35.87-.76.85-1.46-.05-1.29-.02-2.59-.01-3.88,0-.88.41-1.36,1.1-1.34.66.02,1.01.47,1.01,1.33,0,1.41,0,2.82,0,4.24,0,1.22-.52,2.13-1.56,2.73-4.84,2.8-9.69,5.6-14.54,8.39-1.07.62-2.15.59-3.22-.03-4.8-2.77-9.61-5.55-14.41-8.32-1.09-.63-1.64-1.56-1.64-2.83,0-5.55,0-11.11,0-16.66,0-1.28.54-2.2,1.64-2.83,4.81-2.77,9.61-5.55,14.41-8.32,1.07-.62,2.14-.65,3.21-.03,4.85,2.79,9.69,5.59,14.54,8.39,1.01.59,1.56,1.47,1.56,2.66,0,2.4,0,4.8,0,7.2,0,.76-.42,1.24-1.05,1.24-.62,0-1.06-.49-1.06-1.24-.01-1.86,0-3.72,0-5.58,0-.26,0-.51,0-.91ZM34.46,41.28c-.01.3-.03.5-.03.71,0,5.01,0,10.02-.01,15.03,0,.7.23,1.11.84,1.46,4.33,2.47,8.64,4.97,12.95,7.46.19.11.4.21.64.33.04-.16.08-.25.08-.34,0-5.32,0-10.63-.01-15.95,0-.21-.22-.5-.41-.62-4.41-2.57-8.83-5.11-13.24-7.66-.24-.14-.48-.26-.79-.43ZM54.13,45.39c-4.81-2.79-9.5-5.51-14.2-8.21-.14-.08-.38-.11-.5-.04-1.28.72-2.55,1.46-3.82,2.2.06.1.07.16.1.18,4.6,2.66,9.19,5.32,13.8,7.95.25.14.72.14.98,0,1.2-.63,2.37-1.33,3.64-2.06ZM64.5,39.4c-.76-.44-1.41-.81-2.05-1.19-3.88-2.24-7.76-4.49-11.66-6.71-.34-.2-.91-.34-1.23-.19-1.08.51-2.09,1.16-3.13,1.76.06.07.08.12.12.15,4.67,2.71,9.34,5.42,14.01,8.12.14.08.42.08.56,0,1.09-.6,2.16-1.24,3.37-1.94ZM58.72,42.73c-4.8-2.78-9.48-5.49-14.16-8.19-.15-.09-.43-.13-.57-.05-.74.39-1.45.83-2.24,1.29,4.78,2.76,9.47,5.48,14.17,8.19.15.09.42.11.57.03.72-.38,1.42-.81,2.23-1.28ZM59.77,44.59c-.81.47-1.52.87-2.22,1.29-.1.06-.22.21-.23.32-.01,1.73,0,3.45,0,5.31.83-.47,1.54-.87,2.24-1.28.1-.06.21-.22.21-.33.01-1.73,0-3.46,0-5.3Z"/>
    </g>
  </g>
</svg>