<?xml version="1.0" encoding="UTF-8"?>
<svg id="Layer_1" xmlns="http://www.w3.org/2000/svg" viewBox="0 0 100 100">
  <defs>
    <style>
      .cls-1 {
        fill: #fff;
      }

      .cls-2 {
        fill: #1860d3;
      }
    </style>
  </defs>
  <circle class="cls-2" cx="50" cy="50" r="48.13"/>
  <g id="EQDog5.tif">
    <g>
      <path class="cls-1" d="M16,51.51c.67-1.68,1.18-2.02,3.02-2.02.82,0,1.64-.01,2.46,0,.42,0,.64-.13.8-.56.47-1.25.99-2.48,1.54-3.7.18-.41.14-.66-.17-.96-.7-.67-1.39-1.37-2.07-2.06-1.1-1.12-1.12-2.44-.02-3.55,1.43-1.45,2.86-2.88,4.31-4.31,1.09-1.07,2.42-1.07,3.51,0,.71.7,1.42,1.39,2.11,2.11.31.32.57.33.97.15,1.22-.54,2.45-1.06,3.7-1.53.39-.15.54-.35.54-.75-.02-.97-.01-1.95,0-2.92.02-1.65.95-2.58,2.58-2.58,1.97,0,3.93,0,5.9,0,1.63,0,2.59.95,2.6,2.56,0,.78,0,1.56,0,2.33-.01.74-.41,1.19-1.01,1.17-.57-.02-.92-.45-.93-1.17,0-.78-.01-1.56,0-2.33,0-.44-.19-.62-.63-.62-1.99,0-3.98,0-5.97,0-.46,0-.61.22-.61.64,0,.99.01,1.99,0,2.98-.02,1.35-.56,2.03-1.82,2.51-1.21.46-2.4.96-3.58,1.49-1.17.53-2.1.42-3.02-.48-.69-.68-1.39-1.36-2.06-2.07-.36-.38-.64-.42-1.02-.02-1.35,1.38-2.71,2.73-4.08,4.08-.38.37-.39.65,0,1.02.72.68,1.42,1.39,2.11,2.11.85.87.97,1.8.48,2.91-.55,1.24-1.07,2.49-1.56,3.76-.43,1.11-1.13,1.68-2.33,1.72-1.02.03-2.03.03-3.05,0-.52-.01-.74.18-.73.72.02,1.92.02,3.85,0,5.77,0,.54.22.72.74.71,1.02-.02,2.03-.02,3.05,0,1.14.02,1.88.59,2.3,1.66.5,1.28,1.02,2.56,1.58,3.82.48,1.08.37,2.01-.44,2.86-.7.73-1.42,1.45-2.16,2.15-.39.37-.36.65.01,1.02,1.37,1.35,2.73,2.71,4.08,4.08.35.35.62.38.97,0,.7-.73,1.43-1.45,2.15-2.16.84-.82,1.77-.95,2.85-.48,1.26.55,2.54,1.08,3.82,1.58,1.1.43,1.66,1.15,1.69,2.35.02.99.02,1.99,0,2.98-.01.54.16.77.75.77,1.9-.03,3.8-.03,5.71,0,.57,0,.77-.2.76-.76-.03-.99-.02-1.99,0-2.98.01-1.2.62-1.95,1.74-2.37,1.23-.46,2.45-.96,3.64-1.51,1.18-.53,2.1-.43,3.02.46.71.69,1.42,1.39,2.11,2.11.35.36.62.36.97,0,1.36-1.39,2.74-2.76,4.13-4.13.37-.36.33-.63-.02-.97-.72-.69-1.42-1.4-2.11-2.11-.87-.89-.99-1.83-.48-2.97.55-1.22,1.06-2.45,1.53-3.7.43-1.14,1.17-1.72,2.38-1.73.99-.01,1.99-.02,2.98,0,.51.01.75-.15.74-.71-.02-1.95-.01-3.89,0-5.84,0-.37-.07-.65-.52-.65-1.58,0-3.15,0-4.83,0,0,.85,0,1.66,0,2.47,0,1.51-.58,2.09-2.07,2.09-.91,0-1.81,0-2.75,0-.53,4.91-2.81,8.7-7.05,11.2-3.17,1.87-6.61,2.34-10.19,1.53-7.24-1.64-11.95-8.75-10.7-16.12,1.29-7.62,8.93-13.36,17.47-11.25,0-.9,0-1.78,0-2.66,0-.76.37-1.2.96-1.2.6,0,.97.45.98,1.2,0,.89,0,1.77,0,2.66,0,1.71-.83,2.36-2.48,1.94-5.23-1.34-10.64.78-13.39,5.4-2.48,4.16-2.53,8.47.01,12.59,2.53,4.1,6.33,6.12,11.19,5.8,6.06-.4,10.68-5.02,11.2-11.04.13-1.55.61-1.98,2.19-1.99.82,0,1.64,0,2.46-.02.04,0,.08-.03.22-.08,0-.77,0-1.58,0-2.39,0-1.54.53-2.08,2.05-2.08,1.53,0,3.07,0,4.6,0,1.65,0,2.58.93,2.58,2.57,0,1.99,0,3.98,0,5.97,0,1.58-.96,2.53-2.55,2.54-.97,0-1.95.02-2.92,0-.4,0-.62.12-.77.51-.49,1.27-1.01,2.52-1.56,3.76-.17.38-.14.63.16.91.73.7,1.45,1.42,2.16,2.15,1.03,1.05,1.02,2.4-.02,3.46-1.44,1.46-2.89,2.91-4.36,4.36-1.05,1.04-2.4,1.04-3.46.02-.73-.71-1.45-1.42-2.15-2.16-.29-.3-.53-.32-.91-.16-1.24.55-2.5,1.07-3.76,1.56-.35.14-.52.31-.51.7.02.84-.04,1.69.02,2.53.09,1.44-.43,2.47-1.81,3.01h-7.52c-1.36-.56-1.87-1.6-1.77-3.03.06-.8,0-1.6.02-2.4.02-.46-.16-.67-.6-.84-1.23-.46-2.44-.98-3.64-1.51-.39-.18-.66-.17-.97.15-.68.72-1.39,1.42-2.1,2.11-1.08,1.06-2.43,1.07-3.5,0-1.44-1.43-2.88-2.86-4.31-4.31-1.1-1.11-1.09-2.43,0-3.55.7-.71,1.39-1.42,2.11-2.1.3-.29.31-.54.14-.91-.55-1.24-1.07-2.49-1.56-3.76-.14-.36-.32-.51-.7-.5-.82.02-1.64-.04-2.46.02-1.52.1-2.6-.44-3.1-1.94v-7.13Z"/>
      <path class="cls-1" d="M62.52,39.28v-8.88c-.69,0-1.37.01-2.05,0-.68-.02-1.06-.38-1.06-.96,0-.53.36-.94.93-.96.88-.03,1.77-.04,2.66,0,.89.05,1.48.66,1.49,1.57.02,3.18.02,6.35,0,9.53,0,.97-.61,1.61-1.58,1.62-3.2.03-6.39.03-9.59,0-.97,0-1.56-.64-1.57-1.63-.02-3.15-.02-6.31,0-9.46,0-1.05.62-1.62,1.68-1.65.76-.02,1.51-.02,2.27,0,.68.02,1.07.38,1.08.95.01.6-.39.96-1.11.98-.5.01-.99.02-1.49,0-.36-.01-.5.11-.5.48.01,2.64,0,5.27,0,7.91,0,.29.04.5.41.5,2.78,0,5.57,0,8.43,0Z"/>
      <path class="cls-1" d="M78.5,28.5c0,1.34,0,2.68,0,4.02,0,1.22-.62,1.83-1.84,1.83-2.68,0-5.36,0-8.03,0-1.24,0-1.84-.59-1.84-1.83-.01-2.7-.01-5.4,0-8.1,0-1.2.6-1.79,1.8-1.8,2.7-.01,5.4-.01,8.1,0,1.22,0,1.81.62,1.82,1.86,0,1.34,0,2.68,0,4.02ZM76.5,32.38v-7.75h-7.73v7.75h7.73Z"/>
      <path class="cls-1" d="M35.96,55.02c0-3.46,2.79-6.25,6.26-6.25,3.46,0,6.26,2.78,6.28,6.24.02,3.46-2.85,6.33-6.3,6.3-3.46-.02-6.24-2.83-6.24-6.29ZM37.9,55.01c0,2.4,1.91,4.34,4.29,4.36,2.38.02,4.33-1.92,4.35-4.31.02-2.38-1.91-4.33-4.3-4.34-2.41,0-4.33,1.9-4.34,4.3Z"/>
      <path class="cls-1" d="M57.12,18.82c0-.78,0-1.56,0-2.33.02-1.03.63-1.67,1.65-1.68,1.58-.02,3.16-.01,4.73,0,1.03,0,1.65.64,1.66,1.66.01,1.58.01,3.16,0,4.73,0,1.03-.63,1.64-1.68,1.65-1.56.01-3.11.01-4.67,0-1.07,0-1.68-.63-1.7-1.69-.01-.78,0-1.56,0-2.33ZM59.09,20.85h4.1v-4.07h-4.1v4.07Z"/>
      <path class="cls-1" d="M71.61,46.21c-.8,0-1.6.01-2.4,0-.99-.02-1.6-.58-1.62-1.56-.03-1.64-.03-3.29,0-4.93.02-.93.64-1.54,1.57-1.55,1.62-.03,3.24-.03,4.86,0,.93.01,1.57.61,1.59,1.54.04,1.66.04,3.33,0,4.99-.03.93-.67,1.48-1.61,1.51-.04,0-.09,0-.13,0-.76,0-1.51,0-2.27,0ZM73.63,44.24v-4.1h-4.07v4.1h4.07Z"/>
      <path class="cls-1" d="M49.46,48.01c0-.78-.01-1.56,0-2.33.02-.99.61-1.64,1.61-1.66,1.62-.03,3.24-.03,4.86,0,.96.02,1.56.67,1.57,1.63.02,1.6.02,3.2,0,4.8-.01.97-.6,1.59-1.57,1.61-1.64.03-3.29.03-4.93,0-.93-.02-1.52-.64-1.54-1.58-.02-.82,0-1.64,0-2.46ZM51.44,45.98v4.1h4.08v-4.1h-4.08Z"/>
    </g>
  </g>
</svg>